<svg width="143" height="227" viewBox="0 0 143 227" fill="none" xmlns="http://www.w3.org/2000/svg">
<path fill-rule="evenodd" clip-rule="evenodd" d="M40.7487 187.487C40.7487 187.487 43.2601 198.316 47.9832 201.807C52.6959 205.298 59.9201 212.291 63.6924 214.725C67.4646 217.171 71.8673 225.91 71.8673 225.91C71.8673 225.91 72.8078 217.527 83.1842 210.89C93.5502 204.253 95.4415 201.106 96.692 198.316C97.9529 195.526 101.095 187.843 101.095 187.843C101.095 187.843 87.8969 189.589 82.2437 172.824C89.1578 170.378 99.7925 168.334 100.154 158.504C100.185 149.306 86.6361 144.185 86.6361 144.185C86.6361 144.185 88.5274 135.458 96.692 133.012C104.867 130.566 111.151 130.222 112.102 134.057C113.042 137.904 104.557 149.077 110.52 153.613C117.124 153.268 141.639 138.604 141.959 117.648C142.269 96.6913 126.24 89.7097 117.755 90.4101C109.27 91.1106 87.2665 99.8377 80.9828 112.412C77.2105 122.54 90.7287 64.2174 90.0983 41.5155C89.4678 18.8251 78.4611 1.35947 70.9269 1.0035C63.3823 0.659011 50.7426 25.8183 51.435 41.5155C51.4454 56.5812 57.4087 106.819 61.491 113.112C65.5837 119.393 48.6033 91.8111 24.7191 92.1556C0.834883 92.5001 0.524835 115.581 1.14494 119.738C2.40581 126.03 5.23758 146.975 35.7258 156.759C39.8082 151.867 29.1218 135.102 29.1218 134.758C29.1218 134.413 34.1033 128.499 45.4614 132.668C51.6624 135.286 58.3491 140.694 57.7187 144.541C57.0986 148.376 42.3403 151.362 42.95 160.95C43.4564 168.621 60.5505 171.078 60.8709 174.225C61.181 177.359 51.435 188.544 40.7487 187.487Z" fill="#FFFB9C" stroke="#C5BE6B" stroke-width="1.63408" stroke-linejoin="round"/>
</svg>
